<svg width="200" height="48" viewBox="0 0 200 48" fill="none" xmlns="http://www.w3.org/2000/svg">
  <!-- Ícone: Folha/Planta estilizada (versão negativa) -->
  <g transform="translate(0, 4)">
    <path d="M20 36 C20 36, 20 20, 20 16" stroke="#6ee7b7" stroke-width="2.5" stroke-linecap="round"/>
    <path d="M20 20 C24 16, 30 14, 32 18 C34 22, 28 24, 20 20" fill="#34d399"/>
    <path d="M20 16 C16 12, 10 10, 8 14 C6 18, 12 20, 20 16" fill="#6ee7b7"/>
    <path d="M20 16 C22 10, 26 6, 24 4 C22 2, 18 6, 20 16" fill="#34d399"/>
    <path d="M20 24 C22 22, 26 22, 26 24 C26 26, 22 26, 20 24" fill="#a7f3d0"/>
  </g>
  
  <!-- Texto: versão negativa (branco) -->
  <text x="44" y="22" font-family="system-ui, -apple-system, sans-serif" font-size="18" font-weight="700" fill="#ffffff">
    Jardim
  </text>
  <text x="110" y="22" font-family="system-ui, -apple-system, sans-serif" font-size="18" font-weight="700" fill="#34d399">
    Inteligente
  </text>
  
  <!-- Tagline -->
  <text x="44" y="38" font-family="system-ui, -apple-system, sans-serif" font-size="10" font-weight="400" fill="#9ca3af">
    Guias Práticos de Jardinagem
  </text>
</svg>